<?xml version="1.0" standalone="no"?>
<!DOCTYPE svg PUBLIC "-//W3C//DTD SVG 20010904//EN"
 "http://www.w3.org/TR/2001/REC-SVG-20010904/DTD/svg10.dtd">
<svg version="1.0" xmlns="http://www.w3.org/2000/svg"
 width="204.000000pt" height="192.000000pt" viewBox="0 0 204.000000 192.000000"
 preserveAspectRatio="xMidYMid meet">

<g transform="translate(0.000000,192.000000) scale(0.100000,-0.100000)"
fill="#000000" stroke="none">
<path d="M590 1872 c-128 -63 -211 -124 -312 -231 -176 -185 -268 -417 -268
-678 0 -268 93 -508 268 -695 98 -104 169 -157 289 -218 l98 -50 353 0 352 0
93 46 c321 161 530 462 567 819 14 133 -2 264 -51 409 -48 146 -114 258 -215
365 -94 100 -182 166 -309 230 l-100 51 -335 -1 -335 0 -95 -47z m920 -462
c12 -12 20 -33 20 -55 0 -22 -8 -43 -20 -55 -19 -19 -33 -20 -484 -20 -255 0
-472 3 -481 6 -28 11 -46 59 -35 91 21 54 8 53 512 53 455 0 469 -1 488 -20z
m-31 -381 c17 -6 36 -19 41 -29 16 -31 11 -79 -10 -100 -19 -19 -33 -20 -489
-20 -432 0 -470 1 -489 18 -43 36 -33 103 18 129 33 17 881 19 929 2z m-7
-399 c21 -6 42 -19 48 -30 16 -31 12 -78 -10 -100 -19 -19 -33 -20 -484 -20
-255 0 -472 3 -481 6 -23 9 -46 60 -39 88 7 28 30 52 59 59 41 10 870 7 907
-3z"/>
</g>
</svg>
